HIERARCHY
ROOT hip
{
  OFFSET -0.0897746 90.7695 -0.105382
  CHANNELS 6 Xposition Yposition Zposition Zrotation Xrotation Yrotation
  JOINT abdomen
  {
    OFFSET 0 7.2397 0
    CHANNELS 6 Xposition Yposition Zposition Zrotation Xrotation Yrotation
    JOINT chest
    {
      OFFSET 0 16.546 0
      CHANNELS 6 Xposition Yposition Zposition Zrotation Xrotation Yrotation
      JOINT neck
      {
        OFFSET 0 34.2149 0
        CHANNELS 6 Xposition Yposition Zposition Zrotation Xrotation Yrotation
        JOINT head
        {
          OFFSET 0 6.2923 0
          CHANNELS 6 Xposition Yposition Zposition Zrotation Xrotation Yrotation
          End Site
          {
            OFFSET 0 21.2161 0
          }
        }
      }
      JOINT lCollar
      {
        OFFSET 4.0639 26.6115 -1.1234
        CHANNELS 6 Xposition Yposition Zposition Zrotation Xrotation Yrotation
        JOINT lShldr
        {
          OFFSET 14.1772 0 0
          CHANNELS 6 Xposition Yposition Zposition Zrotation Xrotation Yrotation
          JOINT lForeArm
          {
            OFFSET 26.1234 0 0
            CHANNELS 6 Xposition Yposition Zposition Zrotation Xrotation Yrotation
            JOINT lHand
            {
              OFFSET 27.7188 0 0
              CHANNELS 6 Xposition Yposition Zposition Zrotation Xrotation Yrotation
              JOINT lThumb1
              {
                OFFSET 2.2979 -0.4685 1.8313
                CHANNELS 6 Xposition Yposition Zposition Zrotation Xrotation Yrotation
                JOINT lThumb2
                {
                  OFFSET 5.2953 0 0
                  CHANNELS 6 Xposition Yposition Zposition Zrotation Xrotation Yrotation
                  JOINT lThumb3
                  {
                    OFFSET 3.0181 0 0
                    CHANNELS 6 Xposition Yposition Zposition Zrotation Xrotation Yrotation
                    End Site
                    {
                      OFFSET 2.6294 0 0
                    }
                  }
                }
              }
              JOINT lIndex1
              {
                OFFSET 9.3793 0.2991 2.5924
                CHANNELS 6 Xposition Yposition Zposition Zrotation Xrotation Yrotation
                JOINT lIndex2
                {
                  OFFSET 4.3461 0 0
                  CHANNELS 6 Xposition Yposition Zposition Zrotation Xrotation Yrotation
                  JOINT lIndex3
                  {
                    OFFSET 2.1666 0 0
                    CHANNELS 6 Xposition Yposition Zposition Zrotation Xrotation Yrotation
                    End Site
                    {
                      OFFSET 2.2048 0 0
                    }
                  }
                }
              }
              JOINT lMid1
              {
                OFFSET 9.4769 0.8376 0.2947
                CHANNELS 6 Xposition Yposition Zposition Zrotation Xrotation Yrotation
                JOINT lMid2
                {
                  OFFSET 4.772 0 0
                  CHANNELS 6 Xposition Yposition Zposition Zrotation Xrotation Yrotation
                  JOINT lMid3
                  {
                    OFFSET 2.8722 0 0
                    CHANNELS 6 Xposition Yposition Zposition Zrotation Xrotation Yrotation
                    End Site
                    {
                      OFFSET 2.0959 0 0
                    }
                  }
                }
              }
              JOINT lRing1
              {
                OFFSET 8.6586 1.0176 -1.7016
                CHANNELS 6 Xposition Yposition Zposition Zrotation Xrotation Yrotation
                JOINT lRing2
                {
                  OFFSET 4.5461 0 0
                  CHANNELS 6 Xposition Yposition Zposition Zrotation Xrotation Yrotation
                  JOINT lRing3
                  {
                    OFFSET 2.506 0 0
                    CHANNELS 6 Xposition Yposition Zposition Zrotation Xrotation Yrotation
                    End Site
                    {
                      OFFSET 2.2023 0 0
                    }
                  }
                }
              }
              JOINT lPinky1
              {
                OFFSET 7.6901 0.6618 -3.9096
                CHANNELS 6 Xposition Yposition Zposition Zrotation Xrotation Yrotation
                JOINT lPinky2
                {
                  OFFSET 3.2119 0 0
                  CHANNELS 6 Xposition Yposition Zposition Zrotation Xrotation Yrotation
                  JOINT lPinky3
                  {
                    OFFSET 1.924 0 0
                    CHANNELS 6 Xposition Yposition Zposition Zrotation Xrotation Yrotation
                    End Site
                    {
                      OFFSET 1.7829 0 0
                    }
                  }
                }
              }
            }
          }
        }
      }
      JOINT rCollar
      {
        OFFSET -4.0677 26.6109 -1.1234
        CHANNELS 6 Xposition Yposition Zposition Zrotation Xrotation Yrotation
        JOINT rShldr
        {
          OFFSET -14.1772 0 0
          CHANNELS 6 Xposition Yposition Zposition Zrotation Xrotation Yrotation
          JOINT rForeArm
          {
            OFFSET -26.1234 0 0
            CHANNELS 6 Xposition Yposition Zposition Zrotation Xrotation Yrotation
            JOINT rHand
            {
              OFFSET -27.7188 0 0
              CHANNELS 6 Xposition Yposition Zposition Zrotation Xrotation Yrotation
              JOINT rThumb1
              {
                OFFSET -2.2979 -0.4684 1.8313
                CHANNELS 6 Xposition Yposition Zposition Zrotation Xrotation Yrotation
                JOINT rThumb2
                {
                  OFFSET -5.2953 0 0
                  CHANNELS 6 Xposition Yposition Zposition Zrotation Xrotation Yrotation
                  JOINT rThumb3
                  {
                    OFFSET -3.0181 0 0
                    CHANNELS 6 Xposition Yposition Zposition Zrotation Xrotation Yrotation
                    End Site
                    {
                      OFFSET -2.6294 0 0
                    }
                  }
                }
              }
              JOINT rIndex1
              {
                OFFSET -9.3793 0.2991 2.5924
                CHANNELS 6 Xposition Yposition Zposition Zrotation Xrotation Yrotation
                JOINT rIndex2
                {
                  OFFSET -4.3461 0 0
                  CHANNELS 6 Xposition Yposition Zposition Zrotation Xrotation Yrotation
                  JOINT rIndex3
                  {
                    OFFSET -2.1666 0 0
                    CHANNELS 6 Xposition Yposition Zposition Zrotation Xrotation Yrotation
                    End Site
                    {
                      OFFSET -2.2048 0 0
                    }
                  }
                }
              }
              JOINT rMid1
              {
                OFFSET -9.4769 0.8376 0.2947
                CHANNELS 6 Xposition Yposition Zposition Zrotation Xrotation Yrotation
                JOINT rMid2
                {
                  OFFSET -4.772 0 0
                  CHANNELS 6 Xposition Yposition Zposition Zrotation Xrotation Yrotation
                  JOINT rMid3
                  {
                    OFFSET -2.8722 0 0
                    CHANNELS 6 Xposition Yposition Zposition Zrotation Xrotation Yrotation
                    End Site
                    {
                      OFFSET -2.0959 0 0
                    }
                  }
                }
              }
              JOINT rRing1
              {
                OFFSET -8.6586 1.0176 -1.7016
                CHANNELS 6 Xposition Yposition Zposition Zrotation Xrotation Yrotation
                JOINT rRing2
                {
                  OFFSET -4.5461 0 0
                  CHANNELS 6 Xposition Yposition Zposition Zrotation Xrotation Yrotation
                  JOINT rRing3
                  {
                    OFFSET -2.506 0 0
                    CHANNELS 6 Xposition Yposition Zposition Zrotation Xrotation Yrotation
                    End Site
                    {
                      OFFSET -2.2023 0 0
                    }
                  }
                }
              }
              JOINT rPinky1
              {
                OFFSET -7.6901 0.6618 -3.9096
                CHANNELS 6 Xposition Yposition Zposition Zrotation Xrotation Yrotation
                JOINT rPinky2
                {
                  OFFSET -3.2119 0 0
                  CHANNELS 6 Xposition Yposition Zposition Zrotation Xrotation Yrotation
                  JOINT rPinky3
                  {
                    OFFSET -1.924 0 0
                    CHANNELS 6 Xposition Yposition Zposition Zrotation Xrotation Yrotation
                    End Site
                    {
                      OFFSET -1.7829 0 0
                    }
                  }
                }
              }
            }
          }
        }
      }
    }
  }
  JOINT lThigh
  {
    OFFSET 8.7379 -0.0029 0.0005
    CHANNELS 6 Xposition Yposition Zposition Zrotation Xrotation Yrotation
    JOINT lShin
    {
      OFFSET 0 -46.6676 0
      CHANNELS 6 Xposition Yposition Zposition Zrotation Xrotation Yrotation
      JOINT lFoot
      {
        OFFSET 0 -40.1476 0
        CHANNELS 6 Xposition Yposition Zposition Zrotation Xrotation Yrotation
        JOINT lToes
        {
          OFFSET 0 -8.8846 14.2294
          CHANNELS 6 Xposition Yposition Zposition Zrotation Xrotation Yrotation
          End Site
          {
            OFFSET 0 0 6.296
          }
        }
      }
    }
  }
  JOINT rThigh
  {
    OFFSET -8.7379 0.0029 -0.0005
    CHANNELS 6 Xposition Yposition Zposition Zrotation Xrotation Yrotation
    JOINT rShin
    {
      OFFSET 0 -46.6676 0
      CHANNELS 6 Xposition Yposition Zposition Zrotation Xrotation Yrotation
      JOINT rFoot
      {
        OFFSET 0 -40.1476 0
        CHANNELS 6 Xposition Yposition Zposition Zrotation Xrotation Yrotation
        JOINT rToes
        {
          OFFSET 0 -8.8846 14.2294
          CHANNELS 6 Xposition Yposition Zposition Zrotation Xrotation Yrotation
          End Site
          {
            OFFSET 0 0 6.296
          }
        }
      }
    }
  }
}
MOTION
Frames:	4
Frame Time:	0.0333333
-9.3945 86.1013 -9.93284 1.54302 -6.46712 -35.712 -8.88178e-16 7.2397 0 -0.00183778 1.47892 -0.249069 0 16.546 0 1.81706 4.80728 -0.851707 3.55271e-15 34.2149 8.88178e-16 1.01706 44.247 0.662798 -6.21725e-15 6.2923 0 -8.79771 -36.8345 1.8699 4.0639 26.6115 -1.1234 0.394105 -3.91995 8.7377 14.1772 0 0 -56.4208 52.3714 -4.94957 26.1234 0 7.10543e-15 -0.805355 0.731731 -87.2149 27.7188 0 1.42109e-14 12.112 -35.0189 24.1036 2.2979 -0.4685 1.8313 75.0198 58.5975 -97.1228 5.2953 -1.42109e-14 0 -33.1375 -8.24738 0.726978 3.0181 0 -3.55271e-15 12.4883 -0.000109421 -5.86965e-06 9.3793 0.2991 2.5924 -29.9284 -4.80614 12.5454 4.3461 1.42109e-14 0 -29.4905 -0.600903 3.4514 2.1666 -1.42109e-14 0 -2.1684 -1.36217e-05 -1.63111e-06 9.4769 0.8376 0.2947 -46.7407 -12.6388 12.3361 4.772 7.10543e-15 0 -21.1874 -0.193019 1.45377 2.8722 1.42109e-14 0 3.9574 0.0710973 0.3994 8.6586 1.0176 -1.7016 -46.6645 -12.6446 8.06255 4.5461 7.10543e-15 0 -35.7417 0.548701 -1.67417 2.506 0 0 6.7605 -9.46994e-06 -9.94322e-05 7.6901 0.6618 -3.9096 -47.3805 -11.594 4.95757 3.2119 -7.10543e-15 0 -48.4312 -2.24161 4.994 1.924 1.42109e-14 0 4.4131 -5.95467e-06 -3.69154e-06 -4.0677 26.6109 -1.1234 -3.35581 -3.90516 -8.52802 -14.1772 0 5.32907e-15 51.1007 60.4729 -11.7757 -26.1234 -7.10543e-15 0 0.786789 0.570262 80.0714 -27.7188 0 3.55271e-15 13.4914 -0.90015 -15.0855 -2.2979 -0.4684 1.8313 -40.2484 53.9962 60.7785 -5.2953 -1.42109e-14 0 56.7944 -4.91179 -8.08062 -3.0181 0 -1.77636e-15 -12.4883 -9.51409e-05 0.000105278 -9.3793 0.2991 2.5924 0.444777 -8.53776 0.829292 -4.3461 0 -3.55271e-15 11.6981 0.112601 -1.70721 -2.1666 3.55271e-15 -1.77636e-15 2.1682 1.53065e-06 6.59416e-06 -9.4769 0.8376 0.2947 49.0478 -7.10361 -2.80295 -4.772 0 3.55271e-15 70.1857 -3.33562 -4.85955 -2.8722 -1.42109e-14 -7.10543e-15 -3.95751 0.0709846 -0.399396 -8.6586 1.0176 -1.7016 52.9854 2.29391 -4.75901 -4.5461 -7.10543e-15 7.10543e-15 68.8442 2.62334 4.03173 -2.506 -1.42109e-14 5.32907e-15 -6.7605 -1.01325e-05 4.95487e-06 -7.6901 0.6618 -3.9096 51.3636 -5.55653 0.221364 -3.2119 1.42109e-14 -1.77636e-15 69.7798 -2.29289 -3.27309 -1.924 0 0 -4.413 -4.01223e-06 1.12213e-06 8.7379 -0.0029 0.0005 18.1882 -19.8976 6.17437 0 -46.6676 7.10543e-15 2.90694 31.3338 -1.04369 0 -40.1476 -1.77636e-15 -16.6018 -2.68127 26.7045 -3.55271e-15 -8.8846 14.2294 0.0001 -3.97569e-16 -0 -8.7379 0.0029 -0.0005 -18.4063 -18.1465 -23.7126 -3.55271e-15 -46.6676 0 -9.41742 61.1683 5.10655 0 -40.1476 -8.88178e-16 6.71108 -33.4748 -3.01306 -3.55271e-15 -8.8846 14.2294 7.95139e-16 0 -0 
-10.2225 86.1889 -10.8466 1.62492 -6.83215 -36.0604 -2.66454e-15 7.2397 1.77636e-15 -0.0646713 1.65306 -0.464974 1.77636e-15 16.546 -1.77636e-15 1.72626 5.15317 -1.27677 0 34.2149 0 1.11117 44.1708 0.826489 0 6.2923 0 -9.06772 -37.2875 2.63786 4.0639 26.6115 -1.1234 0.931778 -3.89799 9.04572 14.1772 0 1.77636e-15 -58.5615 52.1567 -2.88725 26.1234 7.10543e-15 0 -0.805728 0.712878 -86.25 27.7188 7.10543e-15 -1.42109e-14 10.5277 -33.5072 22.8635 2.2979 -0.4685 1.8313 74.7788 58.1796 -96.8275 5.2953 0 0 -33.0334 -8.22645 0.737117 3.0181 -1.42109e-14 3.55271e-15 12.4883 -0.000109421 -5.86965e-06 9.3793 0.2991 2.5924 -29.4655 -5.21087 11.9357 4.3461 0 -1.42109e-14 -29.4788 -0.600218 3.45102 2.1666 0 0 -2.1684 -1.36217e-05 -1.63111e-06 9.4769 0.8376 0.2947 -46.5348 -12.6802 11.348 4.772 -7.10543e-15 0 -21.1021 -0.190871 1.44837 2.8722 -1.42109e-14 0 3.9574 0.0710973 0.3994 8.6586 1.0176 -1.7016 -46.7352 -12.741 7.38868 4.5461 7.10543e-15 7.10543e-15 -35.6563 0.546215 -1.67071 2.506 0 0 6.7605 -9.46994e-06 -9.94322e-05 7.6901 0.6618 -3.9096 -47.6663 -11.6321 4.80053 3.2119 -7.10543e-15 -7.10543e-15 -48.5175 -2.24922 5.00014 1.924 0 0 4.4131 -5.95467e-06 -3.69154e-06 -4.0677 26.6109 -1.1234 -4.30005 -3.8457 -9.14753 -14.1772 -2.84217e-14 -1.77636e-15 55.922 63.2981 -17.78 -26.1234 0 -1.42109e-14 0.794956 0.579227 81.1481 -27.7188 -7.10543e-15 -1.06581e-14 14.2979 -2.91065 -15.0037 -2.2979 -0.4684 1.8313 -40.7337 53.6742 60.9678 -5.2953 -7.10543e-15 -7.10543e-15 55.9996 -4.79896 -7.97335 -3.0181 0 5.32907e-15 -12.4883 -9.51409e-05 0.000105278 -9.3793 0.2991 2.5924 -0.251861 -8.51087 0.695209 -4.3461 -3.55271e-15 3.55271e-15 11.9274 0.106085 -1.73899 -2.1666 -5.32907e-15 0 2.1682 1.53065e-06 6.59416e-06 -9.4769 0.8376 0.2947 46.7952 -7.06772 -1.82103 -4.772 7.10543e-15 0 65.4058 -2.93661 -4.69643 -2.8722 -1.42109e-14 -7.10543e-15 -3.95751 0.0709846 -0.399396 -8.6586 1.0176 -1.7016 52.3318 2.30262 -4.32206 -4.5461 7.10543e-15 0 69.5766 2.67503 4.05139 -2.506 -1.42109e-14 -3.55271e-15 -6.7605 -1.01325e-05 4.95487e-06 -7.6901 0.6618 -3.9096 50.5102 -5.54079 0.24302 -3.2119 -7.10543e-15 5.32907e-15 70.8374 -2.35422 -3.29473 -1.924 -1.42109e-14 0 -4.413 -4.01223e-06 1.12213e-06 8.7379 -0.0029 0.0005 17.9862 -19.5681 5.26006 -3.55271e-15 -46.6676 7.10543e-15 2.79208 30.4857 -1.02301 -3.55271e-15 -40.1476 1.77636e-15 -13.8722 -1.18094 28.5142 -3.55271e-15 -8.8846 14.2294 0.0001 1.59028e-15 -1.98785e-16 -8.7379 0.0029 -0.0005 -17.8947 -18.2382 -23.8495 -3.55271e-15 -46.6676 0 -9.47707 61.3297 5.14433 -7.10543e-15 -40.1476 -2.66454e-15 5.79458 -33.6594 -3.13091 0 -8.8846 14.2294 -1.19271e-15 1.98785e-16 -0 
-11.0079 86.3615 -11.7974 1.72967 -7.2492 -36.2846 -8.88178e-16 7.2397 0 -0.155131 1.86947 -0.688673 8.88178e-16 16.546 -1.77636e-15 1.59956 5.58438 -1.71098 1.77636e-15 34.2149 0 1.31976 43.9923 0.958443 8.88178e-16 6.2923 -2.84217e-14 -9.11513 -37.7341 3.5047 4.0639 26.6115 -1.1234 1.31523 -3.88114 9.2546 14.1772 0 0 -60.1851 51.7448 -1.29368 26.1234 0 7.10543e-15 -0.804631 0.69611 -85.3218 27.7188 7.10543e-15 -1.42109e-14 8.79763 -31.4067 21.4123 2.2979 -0.4685 1.8313 74.4871 57.5946 -96.414 5.2953 2.84217e-14 -1.77636e-15 -32.8626 -8.19222 0.752618 3.0181 0 0 12.4883 -0.000109421 -5.86965e-06 9.3793 0.2991 2.5924 -28.9206 -5.58656 11.3696 4.3461 0 0 -29.5038 -0.601611 3.45977 2.1666 7.10543e-15 0 -2.1684 -1.36217e-05 -1.63111e-06 9.4769 0.8376 0.2947 -46.2206 -12.7211 10.2525 4.772 -7.10543e-15 0 -20.9455 -0.186928 1.43934 2.8722 0 7.10543e-15 3.9574 0.0710973 0.3994 8.6586 1.0176 -1.7016 -46.6602 -12.8571 6.74273 4.5461 1.42109e-14 -7.10543e-15 -35.4897 0.541359 -1.66394 2.506 1.42109e-14 -7.10543e-15 6.7605 -9.46994e-06 -9.94322e-05 7.6901 0.6618 -3.9096 -47.8333 -11.6063 4.50183 3.2119 0 0 -48.5703 -2.25392 5.00005 1.924 -1.42109e-14 7.10543e-15 4.4131 -5.95467e-06 -3.69154e-06 -4.0677 26.6109 -1.1234 -5.27487 -3.78728 -9.6286 -14.1772 0 0 63.8487 65.6282 -26.1292 -26.1234 -7.10543e-15 1.42109e-14 0.807572 0.595277 82.747 -27.7188 7.10543e-15 -7.10543e-15 14.7663 -6.47959 -14.5371 -2.2979 -0.4684 1.8313 -41.1389 53.2532 61.2009 -5.2953 -1.42109e-14 7.10543e-15 55.2213 -4.68878 -7.86976 -3.0181 7.10543e-15 0 -12.4883 -9.51409e-05 0.000105278 -9.3793 0.2991 2.5924 -0.694891 -8.49388 0.836065 -4.3461 0 3.55271e-15 11.9583 0.105186 -1.74328 -2.1666 3.55271e-15 3.55271e-15 2.1682 1.53065e-06 6.59416e-06 -9.4769 0.8376 0.2947 44.586 -7.02805 -0.851096 -4.772 0 1.77636e-15 60.4656 -2.53996 -4.49353 -2.8722 -2.84217e-14 0 -3.95751 0.0709846 -0.399396 -8.6586 1.0176 -1.7016 51.6975 2.30864 -3.99224 -4.5461 -1.42109e-14 5.32907e-15 70.2345 2.72167 4.06847 -2.506 1.42109e-14 0 -6.7605 -1.01325e-05 4.95487e-06 -7.6901 0.6618 -3.9096 49.6184 -5.52219 -0.159236 -3.2119 1.42109e-14 -7.10543e-15 71.5171 -2.39398 -3.30814 -1.924 0 0 -4.413 -4.01223e-06 1.12213e-06 8.7379 -0.0029 0.0005 17.6907 -19.1914 3.73036 -7.10543e-15 -46.6676 -7.10543e-15 2.6175 29.0964 -0.966743 0 -40.1476 0 -13.48 1.92041 31.2373 -3.55271e-15 -8.8846 14.2294 0.0001 1.98785e-16 3.97569e-16 -8.7379 0.0029 -0.0005 -17.3121 -18.2288 -23.8271 0 -46.6676 0 -9.43843 61.2423 5.09254 0 -40.1476 0 4.88264 -33.645 -3.52194 3.55271e-15 -8.8846 14.2294 2.20695e-32 -3.97569e-16 3.18055e-15 
-11.7354 86.6471 -12.7729 1.82221 -7.5786 -36.3341 0 7.2397 0 -0.224544 2.12479 -0.914221 0 16.546 0 1.50468 6.09362 -2.14471 0 34.2149 -1.77636e-15 1.55901 43.625 1.07091 -1.77636e-15 6.2923 1.42109e-14 -9.13051 -38.2017 4.31941 4.0639 26.6115 -1.1234 1.57299 -3.86938 9.38735 14.1772 -2.84217e-14 -1.77636e-15 -61.2211 51.1932 -0.221024 26.1234 0 0 -0.802178 0.682558 -84.5194 27.7188 -7.10543e-15 1.42109e-14 7.11773 -29.181 19.9329 2.2979 -0.4685 1.8313 74.1656 56.8055 -95.8643 5.2953 0 -1.77636e-15 -32.5388 -8.12711 0.781566 3.0181 1.42109e-14 0 12.4883 -0.000109421 -5.86965e-06 9.3793 0.2991 2.5924 -28.2361 -5.97202 10.7945 4.3461 -3.55271e-15 0 -29.4514 -0.598394 3.46437 2.1666 1.42109e-14 0 -2.1684 -1.36217e-05 -1.63111e-06 9.4769 0.8376 0.2947 -45.8041 -12.7576 9.31617 4.772 7.10543e-15 7.10543e-15 -20.8124 -0.183608 1.4326 2.8722 0 0 3.9574 0.0710973 0.3994 8.6586 1.0176 -1.7016 -46.5381 -12.9843 5.99573 4.5461 0 -7.10543e-15 -35.3675 0.53782 -1.65898 2.506 -1.42109e-14 0 6.7605 -9.46994e-06 -9.94322e-05 7.6901 0.6618 -3.9096 -47.9241 -11.5375 4.11151 3.2119 -7.10543e-15 0 -48.6278 -2.25909 4.99752 1.924 1.42109e-14 0 4.4131 -5.95467e-06 -3.69154e-06 -4.0677 26.6109 -1.1234 -6.32791 -3.7251 -10.0376 -14.1772 2.84217e-14 0 73.0974 66.5696 -35.6816 -26.1234 0 0 0.820162 0.610994 84.4831 -27.7188 -7.10543e-15 7.10543e-15 15.0866 -10.6294 -13.1287 -2.2979 -0.4684 1.8313 -41.5005 52.6636 61.5065 -5.2953 0 0 54.5523 -4.59471 -7.78156 -3.0181 0 -7.10543e-15 -12.4883 -9.51409e-05 0.000105278 -9.3793 0.2991 2.5924 -0.939667 -8.48495 1.14765 -4.3461 -6.21725e-15 0 11.95 0.105439 -1.74213 -2.1666 0 0 2.1682 1.53065e-06 6.59416e-06 -9.4769 0.8376 0.2947 39.774 -6.91515 -0.829627 -4.772 1.42109e-14 0 55.8365 -2.18538 -4.27307 -2.8722 0 0 -3.95751 0.0709846 -0.399396 -8.6586 1.0176 -1.7016 50.7461 2.31748 -3.85381 -4.5461 0 3.55271e-15 71.0424 2.77921 4.08872 -2.506 0 -7.10543e-15 -6.7605 -1.01325e-05 4.95487e-06 -7.6901 0.6618 -3.9096 48.4613 -5.49561 -0.988549 -3.2119 0 3.55271e-15 71.8832 -2.41546 -3.31514 -1.924 0 -7.10543e-15 -4.413 -4.01223e-06 1.12213e-06 8.7379 -0.0029 0.0005 17.1506 -18.7216 1.00433 0 -46.6676 0 2.38189 27.0028 -0.885739 -3.55271e-15 -40.1476 0 -14.5937 5.68872 35.9794 0 -8.8846 14.2294 0.0001 3.97569e-16 -0 -8.7379 0.0029 -0.0005 -16.583 -18.1199 -23.757 0 -46.6676 0 -9.24984 60.7681 4.9144 7.10543e-15 -40.1476 -3.9968e-15 3.97239 -33.3821 -4.15879 0 -8.8846 14.2294 3.97569e-16 -1.98785e-16 3.18055e-15 
